{"title":"Monsters Ball 2001 DVDRip Xvid BigPerm LKRG","uid":6567176,"size":1112332655,"categoryP":"video","categoryS":"movies","magnet":"?xt=urn:btih:1b774e7338af3c7320374cca1166b3b649a0077d&amp;dn=Monsters+Ball+2001+DVDRip+Xvid+BigPerm+LKRG&amp;tr=udp%3A%2F%2Ftracker.openbittorrent.com%3A80&amp;tr=udp%3A%2F%2Fopen.demonii.com%3A1337&amp;tr=udp%3A%2F%2Ftracker.coppersurfer.tk%3A6969&amp;tr=udp%3A%2F%2Fexodus.desync.com%3A6969","seeders":2,"leechers":0,"uploader":".BONE.","files":2,"time":1311740108,"description":"PLOT\n\nAfter a family tragedy, a racist prison guard reexamines his attitudes\nwhile falling in love with the African American wife of the last\nprisoner he executed.\n &lt;a href=&quot;\nhttp://www.imdb.com/title/tt0285742/&quot; rel=&quot;nofollow&quot; target=&quot;_NEW&quot;&gt;\nhttp://www.imdb.com/title/tt0285742/&lt;/a&gt;\n\nEncoded By .......: BigPerm1828\nRuntime ..........: 1h 51mn\nFile Size ........: 1.04 GB\nResolution .......: 704x396\nIMDb URL .........: http://www.imdb.com/title/tt0285742/\nGenre ............: Drama | Romance\nLanguage .........: English\nVideo\nID : 0\nFormat : MPEG-4 Visual\nFormat profile : Advanced Simple@L5\nFormat settings, BVOP : Yes\nFormat settings, QPel : No\nFormat settings, GMC : No warppoints\nFormat settings, Matrix : Default (H.263)\nCodec ID : XVID\nCodec ID/Hint : XviD\nDuration : 1h 51mn\nBit rate : 30.4 Kbps\nWidth : 704 pixels\nHeight : 396 pixels\nDisplay aspect ratio : 16:9\nFrame rate : 23.976 fps\nColor space : YUV\nChroma subsampling : 4:2:0\nBit depth : 8 bits\nScan type : Progressive\nCompression mode : Lossy\nBits/(Pixel*Frame) : 0.005\nStream size : 24.3 MiB (2%)\nWriting library : XviD 1.2.1 (UTC 2008-12-04)\n\nAudio\nID : 1\nFormat : AC-3\nFormat/Info : Audio Coding 3\nCodec ID : 2000\nDuration : 1h 51mn\nBit rate mode : Constant\nBit rate : 448 Kbps\nChannel(s) : 6 channels\nSampling rate : 48.0 KHz\nBit depth : 16 bits\nCompression mode : Lossy\nStream size : 358 MiB (34%)\nAlignment : Aligned on interleaves\n &lt;a href=&quot;\nhttp://leetleech.org/images/24916649765279805284.png&quot; rel=&quot;nofollow&quot; target=&quot;_NEW&quot;&gt;\nhttp://leetleech.org/images/24916649765279805284.png&lt;/a&gt;\n &lt;a href=&quot;\nhttp://leetleech.org/images/38509839861191665732.png&quot; rel=&quot;nofollow&quot; target=&quot;_NEW&quot;&gt;\nhttp://leetleech.org/images/38509839861191665732.png&lt;/a&gt;\n &lt;a href=&quot;\nhttp://leetleech.org/images/68200502413605695097.png&quot; rel=&quot;nofollow&quot; target=&quot;_NEW&quot;&gt;\nhttp://leetleech.org/images/68200502413605695097.png&lt;/a&gt;\n &lt;a href=&quot;\nhttp://leetleech.org/images/44050305255816244539.png&quot; rel=&quot;nofollow&quot; target=&quot;_NEW&quot;&gt;\nhttp://leetleech.org/images/44050305255816244539.png&lt;/a&gt;\n &lt;a href=&quot;\nhttp://leetleech.org/images/31413927611998226324.png&quot; rel=&quot;nofollow&quot; target=&quot;_NEW&quot;&gt;\nhttp://leetleech.org/images/31413927611998226324.png&lt;/a&gt;","torrent":{"xt":"urn:btih:1b774e7338af3c7320374cca1166b3b649a0077d","amp;dn":"Monsters+Ball+2001+DVDRip+Xvid+BigPerm+LKRG","amp;tr":["udp%3A%2F%2Ftracker.openbittorrent.com%3A80","udp%3A%2F%2Fopen.demonii.com%3A1337","udp%3A%2F%2Ftracker.coppersurfer.tk%3A6969","udp%3A%2F%2Fexodus.desync.com%3A6969"],"infoHash":"1b774e7338af3c7320374cca1166b3b649a0077d","infoHashBuffer":{"type":"Buffer","data":[27,119,78,115,56,175,60,115,32,55,76,202,17,102,179,182,73,160,7,125]},"announce":[],"urlList":[]}}